<?xml version="1.0" encoding="UTF-8" standalone="no"?>
<!-- Created with Inkscape (http://www.inkscape.org/) -->

<svg
   version="1.1"
   id="svg1"
   width="2829.3333"
   height="2829.3333"
   viewBox="0 0 2829.3333 2829.3333"
   sodipodi:docname="vecteezy_sea-scape-scene-with-clouds-flat-style-icon_2567227.eps"
   xmlns:inkscape="http://www.inkscape.org/namespaces/inkscape"
   xmlns:sodipodi="http://sodipodi.sourceforge.net/DTD/sodipodi-0.dtd"
   xmlns="http://www.w3.org/2000/svg"
   xmlns:svg="http://www.w3.org/2000/svg">
  <defs
     id="defs1" />
  <sodipodi:namedview
     id="namedview1"
     pagecolor="#ffffff"
     bordercolor="#000000"
     borderopacity="0.25"
     inkscape:showpageshadow="2"
     inkscape:pageopacity="0.0"
     inkscape:pagecheckerboard="0"
     inkscape:deskcolor="#d1d1d1">
    <inkscape:page
       x="0"
       y="0"
       inkscape:label="1"
       id="page1"
       width="2829.3333"
       height="2829.3333"
       margin="0"
       bleed="0" />
  </sodipodi:namedview>
  <g
     id="g1"
     inkscape:groupmode="layer"
     inkscape:label="1">
    <g
       id="group-R5">
      <path
         id="path2"
         d="m 4311.07,5506 c 302.65,391.1 104.21,1056.5 -363.22,1218 -213.85,73.8 -475.72,38.8 -629.09,-125.1 111.73,-202.4 231.61,-399.6 359.25,-591.3 112.32,71.6 185.52,203.8 130.24,326.7 96.16,-144.7 67.1,-329.1 -30.6,-472.7 114,-163.5 233.69,-322.7 358.84,-477.4 h 58.93 c 41.63,36 80.38,76.3 115.65,121.8"
         style="fill:#42c0ca;fill-opacity:1;fill-rule:nonzero;stroke:none"
         transform="matrix(0.13333333,0,0,-0.13333333,0,2829.3333)" />
      <path
         id="path3"
         d="m 7802.12,12216.7 c 17.14,0 34,-1.1 50.66,-3 91.15,275.3 350.17,474.1 656.02,474.1 85.76,0 167.52,-16.3 243.29,-44.8 136.17,396.8 512.29,682.1 955.3,682.1 488.31,0 895.61,-346.4 989.61,-806.9 121.3,105.4 279.4,169.6 452.7,169.6 381.9,0 691.4,-309.5 691.4,-691.3 0,-364 -281.4,-661.6 -638.3,-688.7 v -2.7 h -52.4 c -0.2,0 -0.4,0 -0.7,0 -0.2,0 -0.4,0 -0.7,0 l -1403.88,0.9 c -12.54,-0.4 -25.07,-0.9 -37.73,-0.9 -13.33,0 -26.54,0.5 -39.73,1 l -1124.38,0.7 c -11.5,-0.6 -22.84,-1.7 -34.48,-1.7 -11.94,0 -23.58,1.2 -35.37,1.8 l -627.82,0.4 c -14.33,-1.4 -28.81,-2.2 -43.49,-2.2 -15.07,0 -29.95,0.8 -44.64,2.2 h -0.67 v 0.1 c -230.46,22.7 -410.51,217 -410.51,453.5 0,251.7 204.07,455.8 455.82,455.8 z M 3065.82,7681.8 c 484.65,359.7 1183.94,362 1711.91,69.5 501.69,-277.8 881.13,-794.3 1442.26,-912.7 338.49,-71.4 699.12,20.7 990.14,207.7 350.05,225 618.75,624.5 570.19,1037.7 -48.58,413.3 -505.19,764.6 -891.48,609.9 -243.4,-97.4 -356.17,-503.8 -113.18,-602.3 200.32,-81.1 391.11,127.9 507.17,310.2 20.86,-407.4 -444.98,-733.7 -840.84,-635.1 -395.86,98.7 -653.6,529.8 -627,936.8 26.59,407.1 292.11,771.9 631.56,998.2 626.07,417.4 1535.32,374.4 2090.54,-133.4 444.37,-406.4 624.45,-1022.3 741.37,-1613.1 116.93,-590.7 196.52,-1206.8 504.46,-1724.3 239.68,-402.7 666.98,-730.7 1117.18,-777.2 2.7,1.6 5.5,3 8.3,4.5 207.2,-54.8 430.1,-52 642.1,-8.1 330.1,68.4 664.6,236.3 896.5,484.4 41.2,44.1 75.5,91.1 104.8,140.2 17.8,19.1 35.4,38.5 51.9,59.7 302.6,391.1 104.2,1056.5 -363.3,1217.9 -221.8,76.6 -495.7,36.5 -646.1,-143.7 -150.5,-180.2 -114,-501.8 98,-602.6 212,-100.8 504.8,142.5 408.5,356.6 172.5,-259.5 -57.3,-647.4 -365,-696.7 -307.7,-49.4 -610.5,161.7 -763.7,433.1 -296.6,525.6 -98.3,1251.4 386.3,1611.1 484.7,359.7 1184,362 1711.9,69.6 501.7,-277.9 881.2,-794.4 1442.3,-912.8 338.5,-71.4 699.1,20.7 990.1,207.7 350.1,225 618.8,624.5 570.2,1037.8 -48.6,413.2 -505.2,764.5 -891.5,609.8 -243.4,-97.4 -356.1,-503.8 -113.1,-602.3 200.3,-81.1 391.1,127.9 507.1,310.2 20.9,-407.4 -445,-733.7 -840.8,-635.1 -395.9,98.7 -653.6,529.8 -627,936.9 26.6,407 292.1,771.9 631.5,998.1 626.1,417.4 1535.4,374.4 2090.6,-133.4 444.4,-406.4 624.4,-1022.3 741.4,-1613 113.9,-575.4 192.9,-1174.6 481.5,-1683.6 558.6,1117.9 873.3,2378.8 873.3,3713.4 0,762 -103,1499.8 -294.8,2200.8 -47.8,-17.4 -98,-29.7 -150.5,-34.9 v 0 h -0.9 c -19.9,-1.9 -40.1,-3.1 -60.5,-3.1 -19.9,0 -39.6,1.2 -59,3 l -851.1,-0.5 c -16,-0.8 -31.8,-2.5 -47.9,-2.5 -15.8,0 -31.2,1.6 -46.8,2.4 l -1524.3,-1 c -17.8,-0.7 -35.8,-1.4 -53.8,-1.4 -17.2,0 -34.2,0.7 -51.2,1.3 l -1903.2,-1.2 c -0.3,0 -0.7,-0.1 -1,-0.1 -0.3,0 -0.6,0.1 -0.9,0.1 l -70.9,-0.1 v 3.7 c -484,36.8 -865.5,440.2 -865.5,933.6 0,517.7 419.7,937.3 937.3,937.3 235,0 449.3,-87.1 613.8,-230 127.5,624.3 679.7,1094 1341.6,1094 600.5,0 1110.4,-386.9 1295,-924.8 102.8,38.7 213.6,60.8 329.9,60.8 183.4,0 354.3,-52.9 498.7,-144.1 -1396.8,2632.6 -4165.4,4426.1 -7353.3,4426.1 -1638.57,0 -3166.29,-474 -4454.1,-1292 546.91,-101.3 979.88,-527.2 1090.81,-1070.7 164.51,142.9 378.77,230 613.78,230 517.66,0 937.29,-419.6 937.29,-937.3 0,-493.4 -381.46,-896.8 -865.42,-933.6 v -3.6 h -70.94 c -0.32,0 -0.62,0 -0.93,0 -0.32,0 -0.63,0 -0.94,0 l -1903.24,1.3 c -17.01,-0.7 -34,-1.3 -51.16,-1.3 -18.07,0 -35.97,0.6 -53.87,1.3 l -1524.27,1 c -15.59,-0.8 -30.96,-2.3 -46.73,-2.3 -16.2,0 -31.98,1.6 -47.97,2.4 l -736.51,0.4 c -764.73,-1258.1 -1205.15,-2735.1 -1205.15,-4315 0,-1095.2 212.05,-2140.7 596.63,-3098.4 55.01,61.4 115.69,117.6 181.94,166.8"
         style="fill:#42c0ca;fill-opacity:1;fill-rule:nonzero;stroke:none"
         transform="matrix(0.13333333,0,0,-0.13333333,0,2829.3333)" />
      <path
         id="path4"
         d="m 3808.25,6334.3 c 55.28,-122.9 -17.92,-255.1 -130.24,-326.7 32.69,-49 65.95,-97.7 99.64,-146 97.7,143.6 126.76,328 30.6,472.7"
         style="fill:#2d526f;fill-opacity:1;fill-rule:nonzero;stroke:none"
         transform="matrix(0.13333333,0,0,-0.13333333,0,2829.3333)" />
      <path
         id="path5"
         d="m 16829.7,10196.6 c -555.2,507.8 -1464.5,550.8 -2090.6,133.4 -339.4,-226.2 -604.9,-591.1 -631.5,-998.1 -26.6,-407.1 231.1,-838.2 627,-936.9 395.8,-98.6 861.7,227.7 840.8,635.1 -116,-182.3 -306.8,-391.3 -507.1,-310.2 -243,98.5 -130.3,504.9 113.1,602.3 386.3,154.7 842.9,-196.6 891.5,-609.8 48.6,-413.3 -220.1,-812.8 -570.2,-1037.8 -291,-187 -651.6,-279.1 -990.1,-207.7 -561.1,118.4 -940.6,634.9 -1442.3,912.8 -527.9,292.4 -1227.2,290.1 -1711.9,-69.6 -484.6,-359.7 -682.9,-1085.5 -386.3,-1611.1 153.2,-271.4 456,-482.5 763.7,-433.1 307.7,49.3 537.5,437.2 365,696.7 96.3,-214.1 -196.5,-457.4 -408.5,-356.6 -212,100.8 -248.5,422.4 -98,602.6 150.4,180.2 424.3,220.3 646.1,143.7 467.5,-161.4 665.9,-826.8 363.3,-1217.9 -16.5,-21.2 -34.1,-40.6 -51.9,-59.7 -29.3,-49.1 -63.6,-96.1 -104.8,-140.2 -231.9,-248.1 -566.4,-416 -896.5,-484.4 -212,-43.9 -434.9,-46.7 -642.1,8.1 -2.8,-1.5 -5.6,-2.9 -8.3,-4.5 -450.2,46.5 -877.5,374.5 -1117.18,777.2 -307.94,517.5 -387.53,1133.6 -504.46,1724.3 -116.92,590.8 -297,1206.7 -741.37,1613.1 -555.22,507.8 -1464.47,550.8 -2090.54,133.4 -339.45,-226.3 -604.97,-591.1 -631.56,-998.2 -26.6,-407 231.14,-838.1 627,-936.8 395.86,-98.6 861.7,227.7 840.84,635.1 -116.06,-182.3 -306.85,-391.3 -507.17,-310.2 -242.99,98.5 -130.22,504.9 113.18,602.3 386.29,154.7 842.9,-196.6 891.48,-609.9 48.56,-413.2 -220.14,-812.7 -570.19,-1037.7 -291.02,-187 -651.65,-279.1 -990.14,-207.7 -561.13,118.4 -940.57,634.9 -1442.26,912.7 -527.97,292.5 -1227.26,290.2 -1711.91,-69.5 -66.25,-49.2 -126.93,-105.4 -181.94,-166.8 126.66,-315.4 272.08,-621.2 434.88,-916.1 153.37,163.9 415.24,198.9 629.09,125.1 467.43,-161.5 665.87,-826.9 363.22,-1218 -35.27,-45.5 -74.02,-85.8 -115.65,-121.8 h -58.93 c 1525.17,-1884.7 3856.7,-3090.1 6470.11,-3090.1 3260,0 6081.6,1875.4 7446,4605.9 -288.6,509 -367.6,1108.2 -481.5,1683.6 -117,590.7 -297,1206.6 -741.4,1613"
         style="fill:#2d526f;fill-opacity:1;fill-rule:nonzero;stroke:none"
         transform="matrix(0.13333333,0,0,-0.13333333,0,2829.3333)" />
      <path
         id="path6"
         d="m 4276.88,14925.6 c 15.77,0 31.14,1.5 46.73,2.3 l 1524.27,-1 c 17.9,-0.7 35.8,-1.3 53.87,-1.3 17.16,0 34.15,0.6 51.16,1.3 l 1903.24,-1.3 c 0.31,0 0.62,0 0.94,0 0.31,0 0.61,0 0.93,0 h 70.94 v 3.6 c 483.96,36.8 865.42,440.2 865.42,933.6 0,517.7 -419.63,937.3 -937.29,937.3 -235.01,0 -449.27,-87.1 -613.78,-230 -110.93,543.5 -543.9,969.4 -1090.81,1070.7 -1081.57,-687 -1993.97,-1616.5 -2660.1,-2712.4 l 736.51,-0.4 c 15.99,-0.8 31.77,-2.4 47.97,-2.4"
         style="fill:#ffffff;fill-opacity:1;fill-rule:nonzero;stroke:none"
         transform="matrix(0.13333333,0,0,-0.13333333,0,2829.3333)" />
      <path
         id="path7"
         d="m 7756.81,11307.4 v -0.1 h 0.67 c 14.69,-1.4 29.57,-2.2 44.64,-2.2 14.68,0 29.16,0.8 43.49,2.2 l 627.82,-0.4 c 11.79,-0.6 23.43,-1.8 35.37,-1.8 11.64,0 22.98,1.1 34.48,1.7 l 1124.38,-0.7 c 13.19,-0.5 26.4,-1 39.73,-1 12.66,0 25.19,0.5 37.73,0.9 l 1403.88,-0.9 c 0.3,0 0.5,0 0.7,0 0.3,0 0.5,0 0.7,0 h 52.4 v 2.7 c 356.9,27.1 638.3,324.7 638.3,688.7 0,381.8 -309.5,691.3 -691.4,691.3 -173.3,0 -331.4,-64.2 -452.7,-169.6 -94,460.5 -501.3,806.9 -989.61,806.9 -443.01,0 -819.13,-285.3 -955.3,-682.1 -75.77,28.5 -157.53,44.8 -243.29,44.8 -305.85,0 -564.87,-198.8 -656.02,-474.1 -16.66,1.9 -33.52,3 -50.66,3 -251.75,0 -455.82,-204.1 -455.82,-455.8 0,-236.5 180.05,-430.8 410.51,-453.5"
         style="fill:#ffffff;fill-opacity:1;fill-rule:nonzero;stroke:none"
         transform="matrix(0.13333333,0,0,-0.13333333,0,2829.3333)" />
      <path
         id="path8"
         d="m 17131.3,14590 c -184.6,537.9 -694.5,924.8 -1295,924.8 -661.9,0 -1214.1,-469.7 -1341.6,-1094 -164.5,142.9 -378.8,230 -613.8,230 -517.6,0 -937.3,-419.6 -937.3,-937.3 0,-493.4 381.5,-896.8 865.5,-933.6 v -3.7 l 70.9,0.1 c 0.3,0 0.6,-0.1 0.9,-0.1 0.3,0 0.7,0.1 1,0.1 l 1903.2,1.2 c 17,-0.6 34,-1.3 51.2,-1.3 18,0 36,0.7 53.8,1.4 l 1524.3,1 c 15.6,-0.8 31,-2.4 46.8,-2.4 16.1,0 31.9,1.7 47.9,2.5 l 851.1,0.5 c 19.4,-1.8 39.1,-3 59,-3 20.4,0 40.6,1.2 60.5,3.1 h 0.9 v 0 c 52.5,5.2 102.7,17.5 150.5,34.9 -162.3,593.3 -388.7,1160 -671.2,1692.5 -144.4,91.2 -315.3,144.1 -498.7,144.1 -116.3,0 -227.1,-22.1 -329.9,-60.8"
         style="fill:#ffffff;fill-opacity:1;fill-rule:nonzero;stroke:none"
         transform="matrix(0.13333333,0,0,-0.13333333,0,2829.3333)" />
    </g>
  </g>
</svg>
